<svg xmlns="http://www.w3.org/2000/svg" viewBox="0 0 32 32">
  <g id="folder-upload">
    <path d="M2,6.13V26.87A1.14,1.14,0,0,0,3.13,28H28.87A1.14,1.14,0,0,0,30,26.87V10.13A1.13,1.13,0,0,0,28.87,9H17.08a2.66,2.66,0,0,1-1.8-.72L12.64,5.64A2.29,2.29,0,0,0,11.05,5H3.13A1.13,1.13,0,0,0,2,6.13Z" style="fill: none;stroke: #d11141;stroke-linecap: round;stroke-miterlimit: 10;stroke-width: 1.998606240843633px"/>
    <line x1="16" y1="18" x2="16" y2="24" style="fill: none;stroke: #d11141;stroke-linecap: round;stroke-linejoin: round;stroke-width: 1.998606240843633px"/>
    <polygon points="21 18 16 12 11 18 21 18 21 18" style="fill: none;stroke: #d11141;stroke-linecap: round;stroke-linejoin: round;stroke-width: 1.998606240843633px"/>
    <polygon points="0 0 0 32 32 32 32 0 0 0 0 0" style="fill: none;fill-rule: evenodd"/>
  </g>
</svg>
