<svg xmlns="http://www.w3.org/2000/svg" xmlns:xlink="http://www.w3.org/1999/xlink" viewBox="0 0 32 32">
  <defs>
    <clipPath id="clip-path">
      <polygon points="0 0 0 32 32 32 32 0 0 0 0 0" fill="none" clip-rule="evenodd"/>
    </clipPath>
  </defs>
  <g id="Warning">
    <polygon points="0 0 0 32 32 32 32 0 0 0 0 0" fill="none" fill-rule="evenodd"/>
    <g clip-path="url(#clip-path)">
      <path d="M14.1,3.8,1.4,25.7C.4,27.5,1.3,29,3.3,29H28.7c2,0,2.9-1.5,1.9-3.3L17.9,3.8c-1-1.8-2.8-1.8-3.8,0Z" fill="none" stroke="#721c24" stroke-linecap="round" stroke-miterlimit="10" stroke-width="2"/>
      <path d="M16,23a2,2,0,1,1-2,2,2,2,0,0,1,2-2Z" fill="#721c24" fill-rule="evenodd"/>
      <polygon points="14 8 15 21 17 21 18 8 14 8 14 8" fill="#721c24" fill-rule="evenodd"/>
    </g>
  </g>
</svg>
